<?xml version="1.0" ?><!DOCTYPE svg  PUBLIC '-//W3C//DTD SVG 1.1//EN'  'http://www.w3.org/Graphics/SVG/1.1/DTD/svg11.dtd'><svg enable-background="new 0 0 56 56" height="56px" id="Layer_1" version="1.1" viewBox="0 0 56 56" width="56px" xml:space="preserve" xmlns="http://www.w3.org/2000/svg" xmlns:xlink="http://www.w3.org/1999/xlink"><g><path clip-rule="evenodd" d="M47.021,26.924c-1.107-1.088-3.028-1.357-4.318-0.52   c-1.013,0.662-2.383,1.26-2.821,2.268c-1.55,3.518-3.954,3.543-6.992,2.799c-1.495-0.365-3.167,0.109-4.759,0.182   c-0.73,0.035-1.361-0.084-1.659-0.982c-0.276-0.836-0.966-1.214-1.759-1.254c-1.394-0.078-2.804-0.239-4.178-0.08   c-1.672,0.193-3.355,0.537-4.614,1.96c-0.922,1.042-1.891,2.034-2.856,3.028c-1.394,1.43-1.504,1.412-2.665-0.275   c-0.314-0.461-0.521-1.11-1.217-0.969c-0.577,0.109-0.525,0.66-0.586,1.133c-0.063,0.468-0.484,0.648-0.763,0.938   c-0.786,0.805-1.587,1.582-2.344,2.429c-0.898,1.003-0.667,1.735-0.009,2.604c0.248,0.331,0.463,0.707,0.763,0.974   c3.594,3.219,6.256,7.544,10.677,9.821c1.088,0.561,1.641,0.4,2.314-0.238c0.813-0.771,1.514-1.681,2.292-2.5   c1.632-1.729,1.724-2.19,0.762-4.214c0.402-0.305,0.854-0.165,1.285-0.162c3.287,0.021,6.578,0.019,9.863,0.118   c1.902,0.053,3.465-0.459,4.775-2.041c1.184-1.424,2.678-2.553,3.869-3.969c1.907-2.278,4.197-4.24,5.406-7.128   C48.09,29.408,48.204,28.08,47.021,26.924z M18.005,49.075c-1.118,0.042-2.013-0.495-2.853-1.2   c-2.856-2.409-5.131-5.461-7.855-8.012c-0.611-0.568-0.623-1.207-0.087-1.789c0.625-0.68,1.325-1.28,1.989-1.916   c0.268-0.258,0.52-0.223,0.789,0.014c0.808,0.701,1.833,1.242,2.389,2.119c1.538,2.42,3.799,3.842,5.981,5.401   c0.839,0.601,1.28,1.837,2.546,1.773c0.077-0.007,0.238,0.327,0.244,0.509C21.169,46.498,18.525,49.082,18.005,49.075z    M46.006,30.189c-1.17,2.645-3.281,4.488-5.074,6.591c-1.166,1.366-2.611,2.47-3.76,3.849c-1.107,1.329-2.381,1.748-3.972,1.662   c-1.589-0.086-3.182-0.02-4.772-0.02v-0.095c-1.692,0-3.386-0.003-5.076,0c-0.349,0-0.696,0.007-1.046,0.022   c-1.07,0.05-2.054,0.969-3.229,0.009c-1.923-1.569-4.175-2.71-5.44-5.078c-0.161-0.306-0.319-0.619-0.06-0.852   c1.953-1.722,3.177-4.378,5.937-5.068c1.593-0.399,3.169-0.143,4.755-0.146c0.525-0.003,0.828,0.326,0.975,0.823   c0.35,1.185,1.229,1.444,2.237,1.41c1.737-0.054,3.475-0.168,5.215-0.218c0.638-0.021,1.313-0.053,1.771,0.596   c0.292,0.414,0.699,0.754,0.576,1.383c-0.138,0.702-0.679,0.674-1.147,0.794c-2.563,0.651-5.117,1.425-7.794,0.69   c-0.574-0.156-1.181-0.188-1.653-0.648c-0.359-0.348-0.789-0.588-1.166-0.111c-0.438,0.553-0.186,1.109,0.218,1.557   c0.396,0.439,0.956,0.537,1.486,0.681c2.464,0.667,4.923,0.647,7.381-0.035c0.628-0.175,1.253-0.455,1.884-0.476   c1.818-0.068,2.438-1.256,2.458-2.912c0.011-0.813,0.302-1.139,0.978-1.274c1.284-0.261,2.037-1.073,2.558-2.37   c0.685-1.7,2.234-2.518,3.708-3.26c0.702-0.357,1.477,0.016,2.053,0.597C46.606,28.897,46.277,29.57,46.006,30.189z" fill-rule="evenodd"/><path clip-rule="evenodd" d="M21.011,27.918c0.818-0.057,0.73-0.867,0.708-1.491   c-0.037-1.009-0.023-2.005,0.204-2.995c1.027-4.48,2.955-8.188,7.324-9.887c0.95-0.369,1.163-1.004,0.458-1.954   c-0.581-0.782-1.025-1.684-1.487-2.558c-0.676-1.281-0.307-2.177,1.031-2.585c0.597-0.182,1.177-0.053,1.766,0.094   c1.355,0.339,2.703,0.773,4.119,0.629c0.639-0.065,0.85,0.118,0.556,0.78c-0.779,1.763-1.037,4.106-3.724,3.724   c-0.135-0.02-0.291,0.068-0.426,0.131c-0.537,0.247-1.294,0.41-1.061,1.248c0.244,0.868,0.945,0.567,1.507,0.359   c1.085-0.401,1.995-0.273,2.804,0.713c0.582,0.714,1.316,1.287,1.98,1.925c2.293,2.207,4.017,4.706,3.785,8.229   c-0.035,0.52,0.148,0.988,0.707,1.02c0.574,0.031,0.74-0.479,0.812-0.954c0.21-1.392-0.022-2.724-0.458-4.048   c-0.965-2.938-3.095-4.882-5.158-6.868c-0.57-0.548-0.719-0.977-0.489-1.755c0.492-1.681,1.308-3.198,1.974-4.791   c0.23-0.55,0.359-1.162-0.028-1.661c-0.41-0.529-0.996-0.421-1.515-0.166c-1.255,0.615-2.516,0.458-3.803,0.149   C31.488,4.94,30.4,4.539,29.219,4.727c-2.631,0.417-3.701,2.618-2.434,5.068c0.24,0.463,0.461,0.943,0.743,1.377   c0.474,0.727,0.382,1.153-0.413,1.58c-4.867,2.625-6.289,7.44-7.063,12.27c0.043,0.772,0.039,1.145,0.091,1.51   C20.227,27.138,20.169,27.98,21.011,27.918z" fill-rule="evenodd"/><path clip-rule="evenodd" d="M32.077,27.914c-0.706,0.172-1.288,0.039-1.651-0.686   c-0.268-0.535-0.563-1.145-1.227-0.691c-0.568,0.39-0.38,1.045-0.139,1.579c0.523,1.167,1.637,1.793,2.488,2.575   c0.738,0.68,0.674-1.012,1.318-1.245c0.188-0.067,0.374-0.151,0.545-0.257c2.171-1.365,2.174-4.68-0.012-6.025   c-0.73-0.451-1.508-0.816-2.273-1.196c-0.9-0.446-0.84-1.131-0.324-1.792c0.811-1.041,1.537-0.635,2.184,0.268   c0.287,0.398,0.642,0.695,1.15,0.466c0.319-0.144,0.386-0.45,0.33-0.907c-0.033-0.092-0.08-0.303-0.176-0.482   c-0.631-1.176-1.898-1.771-2.375-3.166c-0.203-0.59-1.15-0.266-1.086,0.467c0.09,0.995-0.468,1.358-0.993,1.908   c-1.623,1.702-1.264,3.806,0.779,4.862c0.671,0.347,1.346,0.686,2.002,1.064c0.634,0.366,0.92,0.97,0.786,1.725   C33.264,27.158,32.861,27.725,32.077,27.914z" fill-rule="evenodd"/><path clip-rule="evenodd" d="M10.385,38.566c-0.564,0.076-0.82,0.371-0.748,0.871   c0.145,0.943,0.54,1.713,1.521,1.897c0.463,0.086,0.888-0.175,0.759-0.681C11.686,39.736,11.163,38.986,10.385,38.566z" fill-rule="evenodd"/></g></svg>