<svg xmlns="http://www.w3.org/2000/svg" fill-rule="evenodd" stroke-linejoin="round" stroke-miterlimit="2" clip-rule="evenodd" viewBox="0 0 64 64" id="chat"><path fill="#ffc800" d="M11.925 46.314H7.763a1.96 1.96 0 0 1-1.96-1.96V25.533a1.96 1.96 0 0 1 1.96-1.96H41.43a1.96 1.96 0 0 1 1.96 1.96v18.823a1.96 1.96 0 0 1-1.96 1.96H20.544C17.7 53.227 8.425 53.871 8.425 53.871c2.576-2.463 3.358-5.325 3.5-7.558Z"></path><path d="M41.447 22.841c1.118.01 2.19.776 2.542 1.861.085.262.129.537.131.813.02 6.28 0 12.56 0 18.841a2.74 2.74 0 0 1-1.156 2.21 2.71 2.71 0 0 1-1.533.48H21.02l-.027.057c-.91 1.917-2.434 3.546-4.248 4.723-2.304 1.496-5.022 2.37-7.693 2.714-.189.024-.377.046-.566.06 0 0-.093.006-.157-.003-.487-.064-.813-.694-.507-1.14.105-.152.255-.265.386-.4a10.657 10.657 0 0 0 2.906-5.976l.005-.035H7.762c-1.107-.004-2.166-.743-2.537-1.8a2.72 2.72 0 0 1-.153-.874c-.02-6.28 0-12.561 0-18.841.004-1.105.743-2.167 1.8-2.538.28-.098.576-.149.874-.152 11.234-.031 22.467-.031 33.7 0ZM7.764 24.304c-.635.001-1.223.545-1.23 1.22-.019 6.28-.019 12.56 0 18.839.007.638.56 1.218 1.23 1.22h4.161c.131.014.168.007.29.06.228.098.4.32.434.57.023.16-.005.322-.02.484-.198 2.21-.986 4.354-2.305 6.13l-.009.012c1.682-.36 3.313-.912 4.853-1.77 1.965-1.093 3.69-2.73 4.612-4.828.03-.068.06-.137.087-.206l.068-.126a.982.982 0 0 1 .202-.203.875.875 0 0 1 .407-.123c6.964 0 13.929.02 20.894 0 .635-.006 1.214-.553 1.22-1.22.02-6.28.02-12.56 0-18.839a1.263 1.263 0 0 0-.878-1.17 1.242 1.242 0 0 0-.351-.05H7.764Z"></path><path fill="#fff" d="M14.723 33.105a1.84 1.84 0 1 1-.001 3.678 1.84 1.84 0 0 1 .001-3.678Z"></path><path d="M14.74 32.374a2.628 2.628 0 0 1 2.278 1.413c.353.7.362 1.564.021 2.27-.483 1.002-1.659 1.63-2.801 1.41a2.63 2.63 0 0 1-2.025-1.975c-.246-1.128.351-2.393 1.453-2.89a2.604 2.604 0 0 1 1.074-.228Zm-.024 1.462a1.14 1.14 0 0 0-1.071.857c-.163.702.494 1.495 1.295 1.336.445-.088.816-.478.88-.93.086-.614-.424-1.257-1.09-1.263h-.014Z"></path><path fill="#fff" d="M24.596 33.105a1.84 1.84 0 0 1 0 3.677 1.84 1.84 0 0 1 0-3.677Z"></path><path d="M24.613 32.374a2.629 2.629 0 0 1 2.279 1.413c.353.7.36 1.564.02 2.27-.483 1.002-1.659 1.63-2.801 1.41a2.63 2.63 0 0 1-2.029-1.991c-.238-1.127.363-2.38 1.457-2.875a2.603 2.603 0 0 1 1.074-.227Zm-.024 1.462c-.493.005-.96.373-1.071.857-.163.702.494 1.495 1.295 1.336.445-.088.817-.478.88-.93.086-.614-.424-1.257-1.09-1.263h-.014Z"></path><path fill="#fff" d="M34.47 33.105a1.84 1.84 0 1 1-.002 3.678 1.84 1.84 0 0 1 .001-3.678Z"></path><path d="M34.486 32.374a2.604 2.604 0 0 1 1.822.774c.588.603.85 1.505.676 2.328-.24 1.137-1.322 2.037-2.515 2.037a2.594 2.594 0 0 1-1.67-.617 2.617 2.617 0 0 1-.884-2.23 2.617 2.617 0 0 1 1.497-2.065 2.603 2.603 0 0 1 1.074-.227zm-.024 1.462c-.534.005-1.031.443-1.092.98-.076.658.533 1.33 1.262 1.223.466-.068.864-.466.933-.933.09-.611-.407-1.255-1.074-1.27h-.029zM56.09 9.428c1.181.01 2.295.8 2.684 1.925.101.293.153.603.156.915.02 6.18 0 12.36 0 18.54a2.916 2.916 0 0 1-1.231 2.35 2.879 2.879 0 0 1-1.627.508H52.9c.367 2.357 1.345 4.712 3.166 6.231l.106.109c.072.112.1.138.134.27a.756.756 0 0 1-.442.864c-.138.054-.17.056-.341.047-1.39-.078-2.764-.38-4.09-.799-2.126-.67-4.126-1.72-5.777-3.238l-.101-.115c-.025-.044-.055-.086-.075-.133a.755.755 0 0 1 .311-.928.743.743 0 0 1 .731.008c.08.047.146.112.211.171 1.815 1.634 4.143 2.676 6.537 3.219.125.028.25.054.375.08l.015.003c-1.283-1.74-2.027-3.91-2.273-6.063a8.465 8.465 0 0 1-.037-.398v-.019l.006-.148c.032-.127.031-.164.102-.277a.738.738 0 0 1 .474-.332c.048-.01.098-.01.148-.014 1.333 0 2.667.004 4 0 .721-.007 1.38-.63 1.387-1.387.02-6.18.02-12.36 0-18.54-.006-.717-.62-1.38-1.387-1.387a5320.283 5320.283 0 0 0-33.349 0c-.705.007-1.357.599-1.386 1.342v8.398c-.006.05-.006.102-.017.152a.754.754 0 0 1-.791.575.748.748 0 0 1-.64-.575c-.01-.05-.01-.102-.015-.152v-8.345a2.913 2.913 0 0 1 1.274-2.379 2.886 2.886 0 0 1 1.566-.478c11.123-.035 22.245-.035 33.368 0z"></path></svg>