<svg xmlns="http://www.w3.org/2000/svg" viewBox="0 0 48 48" id="schedule"><path fill="#6fabe6" d="M47 8v6H1V8a2 2 0 0 1 2-2h3v2a2 2 0 0 0 4 0V6h12v2a2 2 0 0 0 4 0V6h12v2a2 2 0 0 0 4 0V6h3a2 2 0 0 1 2 2Z"></path><path fill="#82bcf4" d="M47 8v6H4V6h1v3a2 2 0 0 0 3.81.82C10.3 9.18 10 7.62 10 6h11v3a2 2 0 0 0 3.81.82C26.3 9.18 26 7.62 26 6h11v3a2 2 0 0 0 3.81.82C42.3 9.18 42 7.62 42 6h3a2 2 0 0 1 2 2Z"></path><path fill="#dad7e5" d="M47 14v30a2 2 0 0 1-2 2H3a2 2 0 0 1-2-2V14Z"></path><path fill="#edebf2" d="M47 14v30H34A30.09 30.09 0 0 1 4 14Z"></path><path fill="#fc6" d="M10 8a2 2 0 0 1-4 0V4a2 2 0 0 1 3.41-1.41c.84.82.59 1.7.59 5.41Z"></path><path fill="#ffde76" d="M10 4v4a2 2 0 0 1-1.5 1.93A2 2 0 0 1 7 8V4a2 2 0 0 1 1.5-1.93A2 2 0 0 1 10 4Z"></path><path fill="#fc6" d="M26 8a2 2 0 0 1-4 0V4a2 2 0 0 1 3.41-1.41c.84.82.59 1.7.59 5.41Z"></path><path fill="#ffde76" d="M26 4v4a2 2 0 0 1-1.5 1.93A2 2 0 0 1 23 8V4a2 2 0 0 1 1.5-1.93A2 2 0 0 1 26 4Z"></path><path fill="#fc6" d="M42 8a2 2 0 0 1-4 0V4a2 2 0 0 1 3.41-1.41c.84.82.59 1.7.59 5.41Z"></path><path fill="#ffde76" d="M42 4v4a2 2 0 0 1-1.5 1.93A2 2 0 0 1 39 8V4a2 2 0 0 1 1.5-1.93A2 2 0 0 1 42 4Z"></path><rect width="4" height="4" x="14" y="19" fill="#7c7d7d" rx="1"></rect><rect width="4" height="4" x="22" y="19" fill="#7c7d7d" rx="1"></rect><rect width="4" height="4" x="30" y="19" fill="#7c7d7d" rx="1"></rect><rect width="4" height="4" x="38" y="19" fill="#7c7d7d" rx="1"></rect><rect width="4" height="4" x="6" y="28" fill="#7c7d7d" rx="1"></rect><rect width="4" height="4" x="14" y="28" fill="#7c7d7d" rx="1"></rect><rect width="4" height="4" x="22" y="28" fill="#7c7d7d" rx="1"></rect><rect width="4" height="4" x="30" y="28" fill="#7c7d7d" rx="1"></rect><rect width="4" height="4" x="38" y="28" fill="#7c7d7d" rx="1"></rect><rect width="4" height="4" x="6" y="37" fill="#7c7d7d" rx="1"></rect><rect width="4" height="4" x="14" y="37" fill="#7c7d7d" rx="1"></rect><rect width="4" height="4" x="22" y="37" fill="#7c7d7d" rx="1"></rect><rect width="4" height="4" x="38" y="37" fill="#7c7d7d" rx="1"></rect><path fill="#db5669" d="m33.41 39 1.3-1.29a1 1 0 0 0-1.42-1.42L32 37.59l-1.29-1.3a1 1 0 0 0-1.42 1.42l1.3 1.29-1.3 1.29a1 1 0 0 0 1.42 1.42l1.29-1.3 1.29 1.3a1 1 0 0 0 1.42-1.42Z"></path></svg>